HIERARCHY
ROOT Hips
{
	OFFSET -351.999878 -572.954773 89.312325
	CHANNELS 6 Xposition Yposition Zposition Zrotation Yrotation Xrotation
	JOINT Spine
	{
		OFFSET 0.000000 2.080078 8.814247
		CHANNELS 6 Xposition Yposition Zposition Zrotation Yrotation Xrotation
		JOINT Spine1
		{
			OFFSET 0.000000 0.000000 8.844139
			CHANNELS 6 Xposition Yposition Zposition Zrotation Yrotation Xrotation
			JOINT Spine2
			{
				OFFSET 0.000000 0.000000 11.682266
				CHANNELS 6 Xposition Yposition Zposition Zrotation Yrotation Xrotation
				JOINT Spine3
				{
					OFFSET 0.000000 0.000000 11.746696
					CHANNELS 6 Xposition Yposition Zposition Zrotation Yrotation Xrotation
					JOINT Neck
					{
						OFFSET 0.000000 0.000000 17.658264
						CHANNELS 6 Xposition Yposition Zposition Zrotation Yrotation Xrotation
						JOINT Neck1
						{
							OFFSET 0.000000 0.000000 5.101517
							CHANNELS 6 Xposition Yposition Zposition Zrotation Yrotation Xrotation
							JOINT Head
							{
								OFFSET 0.000000 0.000000 5.101517
								CHANNELS 6 Xposition Yposition Zposition Zrotation Yrotation Xrotation
								JOINT HeadEnd
								{
									OFFSET 0.000000 0.000000 11.655090
									CHANNELS 6 Xposition Yposition Zposition Zrotation Yrotation Xrotation
									End Site
									{
										OFFSET 0.000000 0.000000 0.100006
									}
								}
							}
						}
					}
					JOINT RightShoulder
					{
						OFFSET -2.625397 0.000000 11.175217
						CHANNELS 6 Xposition Yposition Zposition Zrotation Yrotation Xrotation
						JOINT RightArm
						{
							OFFSET 0.000000 0.000000 10.434708
							CHANNELS 6 Xposition Yposition Zposition Zrotation Yrotation Xrotation
							JOINT RightForeArm
							{
								OFFSET 0.000000 0.000000 29.628418
								CHANNELS 6 Xposition Yposition Zposition Zrotation Yrotation Xrotation
								JOINT RightHand
								{
									OFFSET 0.000000 0.000000 22.857605
									CHANNELS 6 Xposition Yposition Zposition Zrotation Yrotation Xrotation
									JOINT RightHandThumb1
									{
										OFFSET -2.867310 -2.944275 3.959564
										CHANNELS 6 Xposition Yposition Zposition Zrotation Yrotation Xrotation
										JOINT RightHandThumb2
										{
											OFFSET 0.000000 0.000000 3.350403
											CHANNELS 6 Xposition Yposition Zposition Zrotation Yrotation Xrotation
											JOINT RightHandThumb3
											{
												OFFSET 0.000000 0.000000 3.756516
												CHANNELS 6 Xposition Yposition Zposition Zrotation Yrotation Xrotation
												JOINT RightHandThumb4
												{
													OFFSET 0.000000 0.000000 3.147339
													CHANNELS 6 Xposition Yposition Zposition Zrotation Yrotation Xrotation
													End Site
													{
														OFFSET 0.000000 0.000000 0.100006
													}
												}
											}
										}
									}
									JOINT RightHandIndex1
									{
										OFFSET -0.086761 -2.345276 10.030899
										CHANNELS 6 Xposition Yposition Zposition Zrotation Yrotation Xrotation
										JOINT RightHandIndex2
										{
											OFFSET 0.000000 0.000000 4.061096
											CHANNELS 6 Xposition Yposition Zposition Zrotation Yrotation Xrotation
											JOINT RightHandIndex3
											{
												OFFSET 0.000000 0.000000 3.248871
												CHANNELS 6 Xposition Yposition Zposition Zrotation Yrotation Xrotation
												JOINT RightHandIndex4
												{
													OFFSET 0.000000 0.000000 2.639709
													CHANNELS 6 Xposition Yposition Zposition Zrotation Yrotation Xrotation
													End Site
													{
														OFFSET 0.000000 0.000000 0.100006
													}
												}
											}
										}
									}
									JOINT RightHandMiddle1
									{
										OFFSET 0.104095 -0.006775 9.502945
										CHANNELS 6 Xposition Yposition Zposition Zrotation Yrotation Xrotation
										JOINT RightHandMiddle2
										{
											OFFSET 0.000000 0.000000 4.568726
											CHANNELS 6 Xposition Yposition Zposition Zrotation Yrotation Xrotation
											JOINT RightHandMiddle3
											{
												OFFSET 0.000000 0.000000 3.654984
												CHANNELS 6 Xposition Yposition Zposition Zrotation Yrotation Xrotation
												JOINT RightHandMiddle4
												{
													OFFSET 0.000000 0.000000 2.741241
													CHANNELS 6 Xposition Yposition Zposition Zrotation Yrotation Xrotation
													End Site
													{
														OFFSET 0.000000 0.000000 0.100006
													}
												}
											}
										}
									}
									JOINT RightHandRing1
									{
										OFFSET 0.086761 2.267456 8.921707
										CHANNELS 6 Xposition Yposition Zposition Zrotation Yrotation Xrotation
										JOINT RightHandRing2
										{
											OFFSET 0.000000 0.000000 4.061096
											CHANNELS 6 Xposition Yposition Zposition Zrotation Yrotation Xrotation
											JOINT RightHandRing3
											{
												OFFSET 0.000000 0.000000 3.654984
												CHANNELS 6 Xposition Yposition Zposition Zrotation Yrotation Xrotation
												JOINT RightHandRing4
												{
													OFFSET 0.000000 0.000000 2.741241
													CHANNELS 6 Xposition Yposition Zposition Zrotation Yrotation Xrotation
													End Site
													{
														OFFSET 0.000000 0.000000 0.100006
													}
												}
											}
										}
									}
									JOINT RightHandPinky1
									{
										OFFSET -0.173492 4.467224 7.976990
										CHANNELS 6 Xposition Yposition Zposition Zrotation Yrotation Xrotation
										JOINT RightHandPinky2
										{
											OFFSET 0.000000 0.000000 3.350403
											CHANNELS 6 Xposition Yposition Zposition Zrotation Yrotation Xrotation
											JOINT RightHandPinky3
											{
												OFFSET 0.000000 0.000000 2.842758
												CHANNELS 6 Xposition Yposition Zposition Zrotation Yrotation Xrotation
												JOINT RightHandPinky4
												{
													OFFSET 0.000000 0.000000 2.639709
													CHANNELS 6 Xposition Yposition Zposition Zrotation Yrotation Xrotation
													End Site
													{
														OFFSET 0.000000 0.000000 0.100006
													}
												}
											}
										}
									}
									JOINT RightForeArmEnd
									{
										OFFSET 0.000000 0.000000 0.000000
										CHANNELS 6 Xposition Yposition Zposition Zrotation Yrotation Xrotation
										End Site
										{
											OFFSET 0.000000 0.000000 0.100006
										}
									}
								}
								JOINT RightArmEnd
								{
									OFFSET 0.000000 0.000000 0.000000
									CHANNELS 6 Xposition Yposition Zposition Zrotation Yrotation Xrotation
									End Site
									{
										OFFSET 0.000000 0.000000 0.100006
									}
								}
							}
						}
					}
					JOINT LeftShoulder
					{
						OFFSET 2.625397 0.000000 11.175217
						CHANNELS 6 Xposition Yposition Zposition Zrotation Yrotation Xrotation
						JOINT LeftArm
						{
							OFFSET 0.000000 0.000000 10.813629
							CHANNELS 6 Xposition Yposition Zposition Zrotation Yrotation Xrotation
							JOINT LeftForeArm
							{
								OFFSET 0.000000 0.000000 28.724777
								CHANNELS 6 Xposition Yposition Zposition Zrotation Yrotation Xrotation
								JOINT LeftHand
								{
									OFFSET 0.644379 0.328857 25.716171
									CHANNELS 6 Xposition Yposition Zposition Zrotation Yrotation Xrotation
									JOINT LeftHandThumb1
									{
										OFFSET 2.867310 -2.944275 3.959564
										CHANNELS 6 Xposition Yposition Zposition Zrotation Yrotation Xrotation
										JOINT LeftHandThumb2
										{
											OFFSET 0.000000 0.000000 3.350403
											CHANNELS 6 Xposition Yposition Zposition Zrotation Yrotation Xrotation
											JOINT LeftHandThumb3
											{
												OFFSET 0.000000 0.000000 3.756516
												CHANNELS 6 Xposition Yposition Zposition Zrotation Yrotation Xrotation
												JOINT LeftHandThumb4
												{
													OFFSET 0.000000 0.000000 3.100006
													CHANNELS 6 Xposition Yposition Zposition Zrotation Yrotation Xrotation
													End Site
													{
														OFFSET 0.000000 0.000000 0.100006
													}
												}
											}
										}
									}
									JOINT LeftHandIndex1
									{
										OFFSET 0.086761 -2.345276 10.030899
										CHANNELS 6 Xposition Yposition Zposition Zrotation Yrotation Xrotation
										JOINT LeftHandIndex2
										{
											OFFSET 0.000000 0.000000 4.061096
											CHANNELS 6 Xposition Yposition Zposition Zrotation Yrotation Xrotation
											JOINT LeftHandIndex3
											{
												OFFSET 0.000000 0.000000 3.248871
												CHANNELS 6 Xposition Yposition Zposition Zrotation Yrotation Xrotation
												JOINT LeftHandIndex4
												{
													OFFSET 0.000000 0.000000 2.639709
													CHANNELS 6 Xposition Yposition Zposition Zrotation Yrotation Xrotation
													End Site
													{
														OFFSET 0.000000 0.000000 0.100006
													}
												}
											}
										}
									}
									JOINT LeftHandMiddle1
									{
										OFFSET -0.104095 -0.006775 9.502945
										CHANNELS 6 Xposition Yposition Zposition Zrotation Yrotation Xrotation
										JOINT LeftHandMiddle2
										{
											OFFSET 0.000000 0.000000 4.568726
											CHANNELS 6 Xposition Yposition Zposition Zrotation Yrotation Xrotation
											JOINT LeftHandMiddle3
											{
												OFFSET 0.000000 0.000000 3.654984
												CHANNELS 6 Xposition Yposition Zposition Zrotation Yrotation Xrotation
												JOINT LeftHandMiddle4
												{
													OFFSET 0.000000 0.000000 2.741241
													CHANNELS 6 Xposition Yposition Zposition Zrotation Yrotation Xrotation
													End Site
													{
														OFFSET 0.000000 0.000000 0.100006
													}
												}
											}
										}
									}
									JOINT LeftHandRing1
									{
										OFFSET -0.086761 2.267456 8.921707
										CHANNELS 6 Xposition Yposition Zposition Zrotation Yrotation Xrotation
										JOINT LeftHandRing2
										{
											OFFSET 0.000000 0.000000 4.061096
											CHANNELS 6 Xposition Yposition Zposition Zrotation Yrotation Xrotation
											JOINT LeftHandRing3
											{
												OFFSET 0.000000 0.000000 3.654984
												CHANNELS 6 Xposition Yposition Zposition Zrotation Yrotation Xrotation
												JOINT LeftHandRing4
												{
													OFFSET 0.000000 0.000000 2.741241
													CHANNELS 6 Xposition Yposition Zposition Zrotation Yrotation Xrotation
													End Site
													{
														OFFSET 0.000000 0.000000 0.100006
													}
												}
											}
										}
									}
									JOINT LeftHandPinky1
									{
										OFFSET 0.173492 4.467224 7.976990
										CHANNELS 6 Xposition Yposition Zposition Zrotation Yrotation Xrotation
										JOINT LeftHandPinky2
										{
											OFFSET 0.000000 0.000000 3.350403
											CHANNELS 6 Xposition Yposition Zposition Zrotation Yrotation Xrotation
											JOINT LeftHandPinky3
											{
												OFFSET 0.000000 0.000000 2.842758
												CHANNELS 6 Xposition Yposition Zposition Zrotation Yrotation Xrotation
												JOINT LeftHandPinky4
												{
													OFFSET 0.000000 0.000000 2.639709
													CHANNELS 6 Xposition Yposition Zposition Zrotation Yrotation Xrotation
													End Site
													{
														OFFSET 0.000000 0.000000 0.100006
													}
												}
											}
										}
									}
									JOINT LeftForeArmEnd
									{
										OFFSET 0.000000 0.000000 0.000000
										CHANNELS 6 Xposition Yposition Zposition Zrotation Yrotation Xrotation
										End Site
										{
											OFFSET 0.000000 0.000000 0.100006
										}
									}
								}
								JOINT LeftArmEnd
								{
									OFFSET 0.000000 0.000000 0.000000
									CHANNELS 6 Xposition Yposition Zposition Zrotation Yrotation Xrotation
									End Site
									{
										OFFSET 0.000000 0.000000 0.100006
									}
								}
							}
						}
					}
				}
			}
		}
	}
	JOINT RightUpLeg
	{
		OFFSET -11.289948 0.000000 0.000000
		CHANNELS 6 Xposition Yposition Zposition Zrotation Yrotation Xrotation
		JOINT RightLeg
		{
			OFFSET 0.000000 0.000000 -38.200329
			CHANNELS 6 Xposition Yposition Zposition Zrotation Yrotation Xrotation
			JOINT RightFoot
			{
				OFFSET 0.000000 0.000000 -39.900856
				CHANNELS 6 Xposition Yposition Zposition Zrotation Yrotation Xrotation
				JOINT RightToeBase
				{
					OFFSET 0.000000 -15.261658 0.000002
					CHANNELS 6 Xposition Yposition Zposition Zrotation Yrotation Xrotation
					JOINT RightToeBaseEnd
					{
						OFFSET 0.000000 -7.370728 0.000000
						CHANNELS 6 Xposition Yposition Zposition Zrotation Yrotation Xrotation
						End Site
						{
							OFFSET 0.000000 0.000000 0.100000
						}
					}
				}
				JOINT RightLegEnd
				{
					OFFSET 0.000000 0.000000 0.000000
					CHANNELS 6 Xposition Yposition Zposition Zrotation Yrotation Xrotation
					End Site
					{
						OFFSET 0.000000 0.000000 0.100000
					}
				}
			}
			JOINT RightUpLegEnd
			{
				OFFSET 0.000000 0.000000 0.000000
				CHANNELS 6 Xposition Yposition Zposition Zrotation Yrotation Xrotation
				End Site
				{
					OFFSET 0.000000 0.000000 0.099998
				}
			}
		}
	}
	JOINT LeftUpLeg
	{
		OFFSET 11.315674 0.000000 0.000000
		CHANNELS 6 Xposition Yposition Zposition Zrotation Yrotation Xrotation
		JOINT LeftLeg
		{
			OFFSET 0.000000 0.000000 -38.200329
			CHANNELS 6 Xposition Yposition Zposition Zrotation Yrotation Xrotation
			JOINT LeftFoot
			{
				OFFSET 0.000000 0.000000 -39.900856
				CHANNELS 6 Xposition Yposition Zposition Zrotation Yrotation Xrotation
				JOINT LeftToeBase
				{
					OFFSET 0.000000 -15.261658 0.000002
					CHANNELS 6 Xposition Yposition Zposition Zrotation Yrotation Xrotation
					JOINT LeftToeBaseEnd
					{
						OFFSET 0.000000 -7.539978 0.000000
						CHANNELS 6 Xposition Yposition Zposition Zrotation Yrotation Xrotation
						End Site
						{
							OFFSET 0.000000 0.000000 0.100000
						}
					}
				}
				JOINT LeftLegEnd
				{
					OFFSET 0.000000 0.000000 0.000000
					CHANNELS 6 Xposition Yposition Zposition Zrotation Yrotation Xrotation
					End Site
					{
						OFFSET 0.000000 0.000000 0.100000
					}
				}
			}
			JOINT LeftUpLegEnd
			{
				OFFSET 0.000000 0.000000 0.000000
				CHANNELS 6 Xposition Yposition Zposition Zrotation Yrotation Xrotation
				End Site
				{
					OFFSET 0.000000 0.000000 0.099998
				}
			}
		}
	}
}
MOTION
Frames: 2
Frame Time: 0.016667
-7.497314 9.613892 88.905800 6.527809 -0.194219 -3.762256 -0.000011 2.080076 8.814245 -0.047401 -0.823037 0.294086 -0.000011 0.000002 8.844157 -0.080243 0.378983 -0.522831 0.000007 -0.000006 11.682286 -1.850092 1.106493 5.808717 -0.000005 0.000019 11.746688 -0.857040 2.229026 7.742917 -0.000006 0.000031 17.658260 -2.458023 -6.463569 9.748289 0.000012 0.000018 5.101505 0.554576 0.102386 -2.880525 -0.000004 -0.000012 5.101522 -1.078716 1.182530 -17.557075 -0.000001 0.000000 11.655059 0.000000 0.000000 0.000000 -2.625404 0.000023 11.175223 7.918099 -76.888314 -0.006155 0.000017 -0.000005 10.434719 -75.514913 -69.956273 69.163336 -0.000008 0.000031 29.628452 32.707860 1.766988 124.056384 -0.000053 0.000061 22.857584 41.419582 -56.113231 2.185253 -2.867310 -2.944290 3.959572 31.555481 -17.972577 50.443727 0.000034 -0.000084 3.350391 -14.241458 9.016044 -25.485922 -0.000015 -0.000004 3.756485 -9.455629 6.949666 -17.427002 0.000005 0.000017 3.147330 -0.000001 -0.000000 -0.000001 -0.086739 -2.345249 10.030922 -12.417076 -18.138906 18.867573 0.000008 0.000031 4.061073 0.232295 -14.571135 2.093634 -0.000004 -0.000026 3.248880 -0.267700 -14.571141 2.093621 0.000002 0.000000 2.639714 -0.000000 -0.000001 -0.000001 0.104092 -0.006758 9.502953 -6.713809 -16.511253 10.295609 0.000008 -0.000022 4.568707 0.430588 -12.147582 0.646489 -0.000042 0.000020 3.654979 -0.069287 -12.147572 0.646459 0.000014 0.000011 2.741258 -0.000001 0.000001 -0.000003 0.086754 2.267474 8.921713 2.451107 -12.114275 0.884251 0.000018 0.000019 4.061100 -0.963493 -8.520378 -0.522767 -0.000003 -0.000005 3.654991 0.031722 -8.520617 -0.520258 0.000015 0.000004 2.741230 -0.000001 0.000001 -0.000000 -0.173483 4.467215 7.976999 12.155839 -3.602521 -5.321274 0.000014 -0.000017 3.350393 -1.997846 -3.283396 -0.638069 0.000005 -0.000014 2.842735 0.014203 -3.283917 -0.638686 0.000001 -0.000001 2.639710 0.000000 -0.000001 -0.000001 -0.000007 -0.000003 0.000015 0.000000 0.000002 -0.000002 0.000007 -0.000003 -0.000012 0.000000 0.000000 0.000001 2.625389 0.000000 11.175222 -6.708342 82.539073 -0.272275 0.000019 -0.000008 10.813641 -25.346593 81.854244 -43.486237 -0.000015 0.000046 28.724712 -29.206896 0.510227 130.462801 0.644356 0.328873 25.716160 -98.597162 67.675140 -49.268473 2.867294 -2.944275 3.959503 -31.969933 15.218346 54.724965 0.000010 -0.000072 3.350452 8.189137 -6.261753 -15.233209 -0.000044 0.000000 3.756525 5.506931 -4.583255 -10.473419 -0.000045 0.000007 3.100006 -0.000000 -0.000001 0.000003 0.086741 -2.345274 10.030902 -8.924798 -2.534607 -0.910162 -0.000072 -0.000018 4.061103 0.578742 0.000266 0.000131 -0.000038 -0.000016 3.248868 0.073596 -0.000001 -0.007554 -0.000024 0.000007 2.639711 -0.000001 -0.000000 -0.000000 -0.104107 -0.006784 9.502931 -4.125911 -3.478441 0.608243 0.000004 -0.000055 4.568753 0.544600 0.000312 0.026510 0.000013 -0.000038 3.655028 0.036192 0.000006 0.021142 -0.000041 -0.000000 2.741271 -0.000001 -0.000001 0.000002 -0.086821 2.267439 8.921711 3.628050 -5.148965 1.405273 -0.000019 0.000011 4.061100 -1.142541 0.000676 0.000003 -0.000039 0.000031 3.655005 -0.110535 0.000001 -0.001492 -0.000029 -0.000002 2.741254 -0.000000 -0.000001 -0.000002 0.173471 4.467184 7.977005 11.872734 -7.788379 3.792959 -0.000063 0.000029 3.350394 -2.112914 0.089620 -0.003291 -0.000033 0.000015 2.842756 -0.095500 -0.048407 0.006270 -0.000033 0.000011 2.639708 -0.000001 0.000000 -0.000004 -0.000029 -0.000008 -0.000018 0.000001 -0.000001 -0.000000 -0.000015 0.000014 -0.000007 -0.000000 -0.000000 -0.000001 -11.289898 0.000072 0.000010 -8.450133 -3.605034 7.430262 0.000040 0.000024 -38.200329 0.395662 -0.050489 7.272553 -0.000013 -0.000069 -39.900875 0.190773 9.792743 20.623293 0.000015 -15.261597 0.000039 -1.253487 -0.040294 -25.431354 0.000000 -7.370667 0.000000 0.000000 -0.000000 0.000000 -0.000001 0.000062 0.000000 -0.000000 -0.000000 0.000002 0.000030 0.000000 -0.000002 -0.000000 0.000000 0.000001 11.315668 -0.000001 0.000004 -0.715174 2.194309 2.410895 0.000001 0.000063 -38.200317 0.185823 -0.050459 13.927861 0.000001 -0.000002 -39.900833 -1.429471 -5.176459 15.863408 0.000019 -15.261644 0.000015 -0.022553 -0.438945 -20.164318 0.000001 -7.539976 -0.000000 -0.000000 -0.000000 0.000000 0.000000 -0.000002 -0.000000 0.000000 -0.000000 0.000004 -0.000002 -0.000004 -0.000009 0.000001 -0.000000 0.000000 
-7.494049 9.559875 89.022949 7.597400 -0.128538 -3.043645 0.000005 2.080065 8.814250 -0.071627 -0.514447 -0.304652 0.000012 -0.000017 8.844131 -0.135575 0.525284 -0.789497 -0.000014 -0.000023 11.682268 -2.792527 0.816297 5.592246 -0.000008 0.000000 11.746692 -1.309129 1.791134 7.607626 0.000000 0.000011 17.658253 -2.365813 -6.457853 10.228428 0.000014 -0.000012 5.101523 0.636307 0.213663 -2.551728 -0.000011 -0.000015 5.101492 -1.121945 1.367421 -17.291372 -0.000000 0.000000 11.655107 -0.000000 0.000000 -0.000000 -2.625381 0.000025 11.175209 7.905354 -77.220780 -0.006318 0.000000 -0.000018 10.434706 -75.928583 -69.516573 69.196544 0.000000 0.000000 29.628448 32.502312 1.768496 123.755597 -0.000008 0.000061 22.857584 40.400791 -55.347260 2.859304 -2.867313 -2.944260 3.959526 31.555474 -17.972589 50.443734 0.000004 0.000008 3.350414 -14.241471 9.016055 -25.485925 -0.000011 -0.000019 3.756493 -9.455618 6.949663 -17.427007 0.000000 0.000021 3.147332 -0.000001 0.000001 -0.000002 -0.086750 -2.345226 10.030899 -12.407827 -18.087751 18.640146 0.000005 -0.000016 4.061090 0.237623 -14.512680 2.084088 0.000007 -0.000025 3.248859 -0.262565 -14.512694 2.084118 0.000000 -0.000007 2.639696 -0.000000 -0.000002 0.000003 0.104095 -0.006802 9.502937 -6.702302 -16.459284 9.989198 0.000003 0.000028 4.568727 0.432980 -12.097593 0.643364 0.000026 0.000029 3.655013 -0.067193 -12.097576 0.643408 -0.000005 0.000003 2.741251 -0.000000 0.000000 -0.000001 0.086769 2.267462 8.921711 2.462195 -12.017900 0.473664 -0.000007 0.000009 4.061089 -0.965676 -8.475033 -0.521535 0.000006 0.000011 3.654992 0.032459 -8.475262 -0.521268 -0.000035 0.000007 2.741256 -0.000001 0.000001 -0.000001 -0.173496 4.467232 7.976997 12.167894 -3.332698 -5.831979 -0.000009 -0.000014 3.350415 -1.996379 -3.180095 -0.618056 -0.000001 0.000013 2.842755 0.013981 -3.180136 -0.618626 0.000005 -0.000001 2.639717 -0.000000 0.000000 0.000001 0.000001 -0.000001 -0.000005 -0.000001 0.000001 0.000001 -0.000011 -0.000003 -0.000005 0.000000 0.000001 -0.000000 2.625408 0.000009 11.175209 -6.769462 82.521485 -0.263744 -0.000046 0.000013 10.813637 -19.591879 82.034650 -38.070911 -0.000023 0.000038 28.724758 -28.980537 0.504213 130.238976 0.644383 0.328888 25.716179 -96.480937 66.996007 -48.333171 2.867271 -2.944305 3.959526 -31.969954 15.218336 54.724958 -0.000032 -0.000050 3.350449 8.189149 -6.261727 -15.233369 -0.000053 0.000004 3.756506 5.506906 -4.583302 -10.473261 -0.000038 0.000004 3.100020 -0.000000 -0.000001 -0.000002 0.086735 -2.345273 10.030915 -8.792188 -1.940999 -1.761976 -0.000024 -0.000011 4.061095 0.576671 0.000407 0.000138 -0.000027 0.000008 3.248886 0.071612 0.000008 -0.007325 -0.000030 0.000003 2.639733 0.000000 -0.000000 0.000002 -0.104125 -0.006761 9.502930 -4.015174 -2.904943 -0.093174 -0.000035 -0.000044 4.568750 0.544477 0.000199 0.025009 0.000011 -0.000039 3.655009 0.036066 -0.000001 0.019922 -0.000034 0.000000 2.741286 -0.000000 -0.000000 -0.000001 -0.086803 2.267437 8.921705 3.698752 -4.690813 0.783936 -0.000028 -0.000029 4.061114 -1.138746 0.000001 0.000018 -0.000020 -0.000017 3.654999 -0.107601 -0.000002 -0.001429 -0.000027 -0.000003 2.741240 -0.000000 -0.000002 -0.000001 0.173504 4.467253 7.977005 11.902724 -7.492167 3.261005 -0.000037 -0.000012 3.350411 -2.109461 -0.000002 0.000010 -0.000033 0.000015 2.842762 -0.092568 -0.000001 0.005970 -0.000037 0.000008 2.639707 -0.000000 -0.000003 -0.000002 -0.000027 0.000009 -0.000005 -0.000001 0.000001 0.000001 0.000028 0.000016 0.000017 -0.000002 0.000001 0.000001 -11.289904 -0.000018 -0.000008 -9.529938 -3.666744 6.937996 0.000042 0.000034 -38.200333 0.343836 -0.042820 7.098654 0.000003 -0.000070 -39.900848 0.267346 9.439284 21.007008 0.000008 -15.261729 0.000036 -1.200079 -0.048368 -25.554724 -0.000000 -7.370665 -0.000001 -0.000000 0.000000 -0.000000 0.000002 -0.000002 -0.000001 0.000000 0.000000 0.000001 0.000029 0.000060 0.000000 0.000000 0.000000 0.000001 11.315676 -0.000028 -0.000003 -1.008378 2.043280 1.845418 0.000000 0.000046 -38.200329 0.202980 -0.051519 13.405093 -0.000010 0.000018 -39.900841 -2.316972 -5.230951 16.425495 0.000038 -15.261727 0.000039 -0.027800 -0.413468 -20.218629 0.000002 -7.539978 -0.000001 -0.000000 -0.000000 0.000001 0.000001 0.000062 -0.000000 -0.000000 0.000000 0.000002 -0.000001 -0.000001 -0.000004 0.000000 -0.000000 0.000000 
